<svg xmlns="http://www.w3.org/2000/svg" viewBox="0 0 128 128" id="dog-food"><path fill="#fbbf79" d="M90.1 70.48a13.83 13.83 0 0 1-2.21 2.73l-3.16 3.37c-.71.73-.36-.16-1 .8-.37.52-.83 1.47-1.39 1.42-.2 0-1.23 1.8-1.45 1.83a39.93 39.93 0 0 0-5.62 1.5c-1 .27-2 .52-3 .7-3.69.58-7.5 0-8.93.06-2.7.19-5.38-1.91-6.83-3.31a3.2 3.2 0 0 0-3.06-.83h-.19c-2.06.37-5.93 1.19-8.19 3.2-.49.42-16.82 4.94-30.33 10.14-.91.34-1.79.69-2.66 1-.39-.65-.78-1.29-1.14-1.93C.34 72.85.5 56.53 1.37 49a23.07 23.07 0 0 0 2.84.31c9 .42 18.73-1 25.56-6 18.38-13.51 25.65-9.71 32.24-6a26.57 26.57 0 0 1 7.16 6.58l.28.34c0 .07.12.14.18.23.64.83 1.24 1.64 1.76 2.41.73 1.57 1.23 3.75 1.67 4.89l-.09.09a1.15 1.15 0 0 1 .31.39c2.63 4.74 13.33 7.29 16.79 11.6 1.82 2.3 1.1 4.8.03 6.64Z"></path><path fill="#f0af68" d="M90.1 70.48a13.83 13.83 0 0 1-2.21 2.73l-4.17 6a3.15 3.15 0 0 1-.88.59 15.9 15.9 0 0 1-2 .84 38.83 38.83 0 0 1-5.62 1.5c-5.26 1.61-8.58 1-12 .76a12.27 12.27 0 0 1-6.83-3.31 3.2 3.2 0 0 0-3.06-.83h-.19A18.88 18.88 0 0 0 45 82.4c-.49.43-16.86 4.59-30.38 9.75-.91.34-1.79.69-2.66 1-.39-.65-.78-1.29-1.14-1.93C25.72 83.72 41.16 77.8 42.13 77c2-1.69 8.72-4.77 11.9-4.38s5.58 2.51 9.64 3.83 18-3.29 18-3.29a8.58 8.58 0 0 1-1.89-10L71.19 57c-3.79-4.43-2-13.09-2-13.09l.28.34c0 .07.12.14.18.23a10 10 0 0 1 1.76 2.41c.73 1.57 1.23 3.75 1.67 4.89a3.59 3.59 0 0 0 .21.5c2.63 4.74 13.33 7.29 16.79 11.6 1.81 2.26 1.09 4.76.02 6.6Z"></path><path fill="#333" d="M89.35 63.07s-3.72-.63-5 2.12 3.57 8 3.57 8a11.89 11.89 0 0 0 3.54-5.78c.54-2.41-2.11-4.34-2.11-4.34Z"></path><path fill="#fbbf79" d="M49.85 54.89A5.59 5.59 0 0 1 52.54 61 43.21 43.21 0 0 0 53 78.39c1.44 5.16-.31 12.79-3.07 12.77s-5.38-3.42-8.84-4.62-9.09-3.93-10.81-6.66-1.18-5-3.19-6.75-4-8.07-1.89-11.09 10.16-9.15 13.26-9.12 4.94 1.77 11.39 1.97Z"></path><path fill="#f0af68" d="M25.19 62.05c.53-.78-1.14 1 0 0Z"></path><path fill="#f0af68" d="M54.05 78.91c-.21-.93-.44-1.63-.61-2.45S53.12 74.84 53 74a52.2 52.2 0 0 1-.41-10c0-.84.12-1.67.24-2.49a7.24 7.24 0 0 0 .07-2.63 5.62 5.62 0 0 0-3-4A5.68 5.68 0 0 1 52.38 59a6.9 6.9 0 0 1-.29 2.41c-.21.84-.35 1.69-.48 2.54a46.57 46.57 0 0 0-.17 10.29c.09.85.2 1.72.35 2.57s.4 1.77.54 2.5a16.33 16.33 0 0 1 .19 4.79 19 19 0 0 1-.52 2.7c-2.36-.73-4.71-3.39-7.7-4.42-3.45-1.2-9.1-3.93-10.83-6.66s-1.18-5-3.2-6.75c-1.73-1.48-6-3.66-5.11-6.91a7.3 7.3 0 0 0-1 4.91 13.76 13.76 0 0 0 1.43 5 6.93 6.93 0 0 0 .76 1.15 10.63 10.63 0 0 1 .85.91 5.48 5.48 0 0 1 .92 2.08 11.92 11.92 0 0 0 2.08 4.92 16.27 16.27 0 0 0 4.17 3.34A37.39 37.39 0 0 0 39 86.75l1.21.49.61.22.53.21a13.36 13.36 0 0 1 2.06 1.17 35 35 0 0 0 4.41 2.84 6.53 6.53 0 0 0 1.46.43 3.35 3.35 0 0 0 .85 0 2.38 2.38 0 0 0 1-.27 5 5 0 0 0 2-2.39 15 15 0 0 0 1.26-5.25 17.35 17.35 0 0 0-.34-5.29Z"></path><path fill="#333736" d="M58.7 57.72a1 1 0 0 1-.44-.1 1 1 0 0 1-.47-1.35 6.58 6.58 0 0 1 3.81-3.41 1 1 0 0 1 .69 1.89 4.55 4.55 0 0 0-2.68 2.4 1 1 0 0 1-.91.57Z"></path><path fill="#996a61" d="M27 87.59c-14-20.25-12.73-36.4-12.44-38.73a.24.24 0 0 0-.26-.26l-7.22.55a.24.24 0 0 0-.22.18c-.46 2-3.72 18.48 12.9 41.23a.47.47 0 0 0 .55.16l6.51-2.42a.47.47 0 0 0 .18-.71Z"></path><path fill="#da5d6a" d="M98.39 64.77v25.39c0 1.67 6.4 4 14.3 4s14.31-2.36 14.31-4V64.77Z"></path><ellipse cx="112.69" cy="64.77" fill="#da5d6a" rx="14.31" ry="3.02"></ellipse><path fill="#d03e54" d="M125.79 66a7.75 7.75 0 0 1-1.77.66 44.25 44.25 0 0 1-11.09 1.15 45.72 45.72 0 0 1-10.87-1.09 8.58 8.58 0 0 1-2-.72c1.24-.73 5.63-1.82 12.85-1.82s11.64 1.07 12.88 1.82Z"></path><path fill="#fbbf79" d="M124 66.64a44.25 44.25 0 0 1-11.09 1.15 45.72 45.72 0 0 1-10.87-1.09 44.07 44.07 0 0 1 11.09-1.16 44.94 44.94 0 0 1 10.87 1.1Z"></path><path fill="#f2f2f2" d="m116.83 81.28-1.43-2.18a3 3 0 0 0-4.93 0L109 81.28a2.94 2.94 0 0 0 2.46 4.57h2.87a2.94 2.94 0 0 0 2.5-4.57Z"></path><ellipse cx="115.21" cy="74.04" fill="#f2f2f2" rx="2.51" ry="1.94" transform="rotate(-77.81 115.21 74.042)"></ellipse><ellipse cx="119.42" cy="77.78" fill="#f2f2f2" rx="2.51" ry="1.94" transform="rotate(-60 119.42 77.78)"></ellipse><ellipse cx="109.51" cy="74.04" fill="#f2f2f2" rx="1.94" ry="2.51" transform="rotate(-12.19 109.499 74.017)"></ellipse><ellipse cx="105.97" cy="78.69" fill="#f2f2f2" rx="1.94" ry="2.51" transform="rotate(-30 105.974 78.696)"></ellipse><path fill="#ccc" d="M107.29 44.89a22.31 22.31 0 0 0-1.17 3.41 3.9 3.9 0 0 0 .59 2.85 11.42 11.42 0 0 1 .83 1.81 5.25 5.25 0 0 1 .19 2.15 4.6 4.6 0 0 1-2 3.42 6.82 6.82 0 0 0 .46-3.43 7.75 7.75 0 0 0-1.22-3 5.62 5.62 0 0 1-.69-2.06 4.32 4.32 0 0 1 .38-2.22 7.11 7.11 0 0 1 2.63-2.93zM115 33.85a22.69 22.69 0 0 0-1.17 3.41 3.84 3.84 0 0 0 .6 2.85 11.44 11.44 0 0 1 .82 1.81 5.31 5.31 0 0 1 .2 2.16 4.55 4.55 0 0 1-2 3.41 6.8 6.8 0 0 0 .46-3.43 7.57 7.57 0 0 0-1.22-3 5.87 5.87 0 0 1-.69-2.07 4.3 4.3 0 0 1 .38-2.21 7.21 7.21 0 0 1 2.62-2.93zm6.83 9.77a22.69 22.69 0 0 0-1.17 3.38 3.84 3.84 0 0 0 .59 2.85 10.61 10.61 0 0 1 .82 1.81 5.14 5.14 0 0 1 .2 2.16 4.57 4.57 0 0 1-2 3.41 6.91 6.91 0 0 0 .46-3.43 7.72 7.72 0 0 0-1.22-3 5.5 5.5 0 0 1-.69-2.07 4.3 4.3 0 0 1 .38-2.21 7.07 7.07 0 0 1 2.63-2.9z"></path></svg>